<?xml version="1.0" encoding="utf-8"?>
<!-- Generator: Adobe Illustrator 15.0.2, SVG Export Plug-In . SVG Version: 6.00 Build 0)  -->
<!DOCTYPE svg PUBLIC "-//W3C//DTD SVG 1.1//EN" "http://www.w3.org/Graphics/SVG/1.1/DTD/svg11.dtd">
<svg version="1.1"
	 id="Calque_1" xmlns:svg="http://www.w3.org/2000/svg" xmlns:rdf="http://www.w3.org/1999/02/22-rdf-syntax-ns#" xmlns:dc="http://purl.org/dc/elements/1.1/"
	 xmlns="http://www.w3.org/2000/svg" xmlns:xlink="http://www.w3.org/1999/xlink" x="0px" y="0px" width="800px" height="200px"
	 viewBox="0 0 800 200" enable-background="new 0 0 800 200" xml:space="preserve">
<path fill="#FFFFFF" d="M663.289,149.906c0,6.558-5.314,11.873-11.874,11.873s-11.874-5.315-11.874-11.873V93.993
	c0-6.559,5.314-11.875,11.874-11.875s11.874,5.316,11.874,11.875V149.906z M666.749,53.554c0,8.47-6.864,15.334-15.334,15.334
	s-15.334-6.864-15.334-15.334s6.864-15.334,15.334-15.334S666.749,45.084,666.749,53.554z M700.188,93.42v1.945
	c2.864-4.644,6.915-8.226,12.155-10.748c5.236-2.518,11.264-3.779,18.082-3.779c5.04,0,9.117,0.914,12.23,2.742
	c3.11,1.831,5.507,4.202,7.187,7.116c1.682,2.917,2.792,6.104,3.337,9.561c0.541,3.459,0.814,6.819,0.814,10.079v51.203h-23.717
	v-45.127c0-5.135-0.963-8.867-2.89-11.188c-1.927-2.323-4.471-3.485-7.634-3.485c-1.68,0-3.385,0.348-5.113,1.037
	c-1.73,0.693-3.361,1.657-4.891,2.893c-1.535,1.235-2.942,2.692-4.225,4.371c-1.286,1.684-2.275,3.508-2.966,5.486v46.014h-23.716
	V93.124v-0.269c0.071-5.713,4.62-10.334,10.304-10.534h0.757c5.58,0.196,10.061,4.663,10.284,10.236V93.42z M269.112,105.814
	c-1.681-4.991-4.001-9.313-6.966-12.972c-2.964-3.653-6.499-6.545-10.597-8.671c-4.103-2.122-8.623-3.186-13.563-3.186
	c-5.929,0-11.043,1.259-15.342,3.779s-7.733,6.005-10.303,10.449V50.166h-0.014c0-0.034,0.006-0.065,0.006-0.099
	c0-6.542-5.304-11.846-11.845-11.846c-6.543,0-11.846,5.304-11.846,11.846c0,0.034,0.005,0.065,0.005,0.099h-0.021v111.518h0.675
	v0.014h22.9v-10.184c2.131,2.613,4.667,4.779,7.627,6.477c4.395,2.518,9.56,3.779,15.49,3.779c5.137,0,9.931-1.016,14.377-3.04
	c4.447-2.025,8.301-4.841,11.562-8.448c3.26-3.605,5.803-7.857,7.634-12.747c1.827-4.892,2.742-10.155,2.742-15.787
	C271.634,116.113,270.793,110.805,269.112,105.814L269.112,105.814z M245.991,129.676c-0.89,2.424-2.149,4.521-3.78,6.302
	c-1.631,1.778-3.609,3.186-5.93,4.225c-2.321,1.037-4.867,1.556-7.634,1.556c-3.26,0-6.373-0.963-9.336-2.89
	c-2.966-1.928-5.288-4.569-6.969-7.931v-16.305c1.681-3.853,4.077-7.064,7.189-9.636c3.114-2.567,6.546-3.852,10.303-3.852
	c2.568,0,4.914,0.543,7.04,1.629c2.125,1.088,3.978,2.569,5.559,4.446c1.579,1.879,2.791,4.076,3.631,6.596
	c0.84,2.521,1.261,5.165,1.261,7.931C247.325,124.615,246.879,127.256,245.991,129.676z M394.957,93.567v1.944
	c2.865-4.643,6.916-8.226,12.156-10.747c5.234-2.519,11.264-3.779,18.081-3.779c5.04,0,9.116,0.914,12.229,2.742
	c3.112,1.83,5.507,4.201,7.188,7.115c1.682,2.917,2.791,6.104,3.337,9.561c0.541,3.46,0.812,6.818,0.812,10.08v51.201h-23.716
	v-45.125c0-5.135-0.962-8.867-2.889-11.189c-1.929-2.322-4.473-3.485-7.634-3.485c-1.682,0-3.387,0.347-5.113,1.038
	c-1.732,0.693-3.362,1.656-4.893,2.893c-1.533,1.234-2.941,2.691-4.224,4.371c-1.287,1.682-2.276,3.508-2.965,5.486v46.012h-23.717
	V93.27V93c0.072-5.712,4.621-10.334,10.305-10.533h0.755c5.581,0.196,10.061,4.663,10.285,10.235V93.567L394.957,93.567z
	 M167.135,93.066c-3.558-3.706-7.907-6.646-13.043-8.822c-5.141-2.172-11.021-3.26-17.64-3.26c-6.621,0-12.526,1.088-17.713,3.26
	c-5.188,2.176-9.56,5.141-13.118,8.896c-3.558,3.756-6.277,8.128-8.153,13.118c-1.878,4.989-2.816,10.3-2.816,15.934
	c0,4.544,0.708,8.919,2.122,13.126c-1.157,1.701-2.709,3.139-4.697,4.289c-2.471,1.436-5.188,2.151-8.153,2.151
	c-2.371,0-4.62-0.494-6.745-1.482c-2.125-0.987-3.978-2.374-5.557-4.149c-0.706-0.793-1.898-2.463-1.898-8.668V50.121
	c0.003-6.597-5.301-11.9-11.843-11.9c-6.526,0-11.818,5.28-11.843,11.799l-0.031,83.846c0,7.008,4.246,12.529,7.308,15.674
	c3.607,3.705,8.005,6.672,13.192,8.896c1.716,0.735,3.513,1.337,5.375,1.83c3.767,0.996,7.826,1.505,12.191,1.505
	c8.99,0,16.624-1.927,22.901-5.783c1.15-0.705,2.224-1.462,3.26-2.24c2.595,1.893,5.456,3.527,8.653,4.836
	c5.188,2.123,11.043,3.188,17.565,3.188c8.991,0,16.699-1.927,23.124-5.783c6.423-3.852,11.165-8.842,14.229-14.97l-20.158-5.632
	c-0.649,1.71-1.675,3.208-3.078,4.494c-0.95,0.871-2.075,1.646-3.371,2.324c-3.213,1.681-6.546,2.519-10.005,2.519
	c-4.35,0-8.226-1.356-11.635-4.074c-3.409-2.717-5.314-6.696-5.708-11.934h57.513c0.196-0.985,0.345-2.15,0.445-3.482
	c0.096-1.334,0.147-2.692,0.147-4.075c0-5.338-0.914-10.427-2.742-15.269C173.385,101.048,170.692,96.771,167.135,93.066
	L167.135,93.066z M119.405,114.039c0.494-4.84,2.248-8.72,5.263-11.637c3.012-2.914,6.842-4.371,11.487-4.371
	c4.546,0,8.349,1.433,11.413,4.298c3.063,2.867,4.842,6.77,5.337,11.709H119.405L119.405,114.039z M623.966,106.108
	c-1.878-4.89-4.596-9.19-8.153-12.895c-3.556-3.705-7.907-6.671-13.043-8.894c-5.139-2.221-11.021-3.334-17.639-3.334
	c-6.622,0-12.526,1.113-17.714,3.334c-5.188,2.223-9.561,5.189-13.118,8.894c-3.557,3.705-6.251,8.005-8.078,12.895
	c-1.829,4.892-2.742,10.005-2.742,15.342s0.913,10.45,2.742,15.343c1.827,4.893,4.521,9.189,8.078,12.895
	c3.558,3.708,7.93,6.648,13.118,8.82c5.188,2.172,11.092,3.262,17.714,3.262c6.618,0,12.523-1.09,17.713-3.262
	c5.188-2.172,9.56-5.112,13.118-8.82c3.558-3.705,6.248-8.002,8.077-12.895c1.828-4.893,2.743-10.006,2.743-15.343
	S625.842,111,623.966,106.108L623.966,106.108z M600.99,129.676c-0.89,2.521-2.101,4.672-3.632,6.451
	c-1.533,1.776-3.335,3.161-5.41,4.15c-2.074,0.986-4.35,1.48-6.817,1.48c-5.04,0-9.19-1.853-12.452-5.558
	c-3.26-3.705-4.891-8.622-4.891-14.75c0-2.963,0.444-5.705,1.334-8.226c0.89-2.52,2.098-4.668,3.633-6.447
	c1.529-1.78,3.356-3.163,5.482-4.15c2.124-0.988,4.422-1.481,6.894-1.481c4.938,0,9.042,1.852,12.302,5.558
	c3.262,3.705,4.892,8.621,4.892,14.747C602.324,124.416,601.881,127.158,600.99,129.676z M351.231,93.213
	c-3.558-3.705-7.908-6.671-13.045-8.894c-5.139-2.221-11.02-3.334-17.639-3.334c-6.621,0-12.524,1.113-17.714,3.334
	c-5.186,2.223-9.56,5.189-13.116,8.894c-3.559,3.705-6.253,8.005-8.08,12.895c-1.829,4.892-2.742,10.005-2.742,15.342
	s0.913,10.45,2.742,15.343c1.827,4.893,4.521,9.189,8.08,12.895c3.556,3.708,7.93,6.648,13.116,8.82
	c5.19,2.172,11.093,3.262,17.714,3.262c6.619,0,12.526-1.09,17.713-3.262c5.189-2.172,9.56-5.112,13.118-8.82
	c3.558-3.705,6.25-8.002,8.079-12.895c1.828-4.893,2.742-10.006,2.742-15.343s-0.94-10.45-2.815-15.342
	C357.505,101.219,354.789,96.918,351.231,93.213z M336.407,129.676c-0.889,2.521-2.101,4.672-3.631,6.451
	c-1.534,1.776-3.335,3.161-5.411,4.15c-2.074,0.986-4.349,1.48-6.818,1.48c-5.04,0-9.19-1.853-12.45-5.558
	c-3.261-3.705-4.893-8.622-4.893-14.75c0-2.963,0.445-5.705,1.335-8.226c0.889-2.52,2.098-4.668,3.631-6.447
	c1.531-1.78,3.359-3.163,5.485-4.15c2.124-0.988,4.421-1.481,6.892-1.481c4.941,0,9.042,1.852,12.303,5.558
	c3.261,3.705,4.892,8.621,4.892,14.747C337.742,124.416,337.297,127.158,336.407,129.676L336.407,129.676z M509.534,139.607
	c-2.471,1.437-5.188,2.15-8.152,2.15c-2.371,0-4.62-0.494-6.744-1.48c-2.126-0.988-3.979-2.375-5.559-4.151
	c-1.583-1.778-2.815-3.928-3.705-6.45c-0.89-2.517-1.335-5.309-1.335-8.373c0-6.126,1.653-11.017,4.967-14.674
	c3.309-3.656,7.433-5.484,12.376-5.484c5.929,0,10.425,2.471,13.487,7.412l23.124-6.967c-3.063-6.128-7.658-11.093-13.783-14.897
	c-6.129-3.804-13.689-5.708-22.68-5.708c-6.622,0-12.524,1.088-17.714,3.26c-5.187,2.175-9.559,5.116-13.118,8.822
	c-3.558,3.705-6.275,8.001-8.151,12.895c-1.879,4.892-2.816,10.004-2.816,15.341c0,5.338,0.938,10.45,2.816,15.342
	c1.876,4.891,4.617,9.19,8.226,12.896c3.607,3.705,8.005,6.67,13.192,8.894c5.188,2.226,11.044,3.336,17.565,3.336
	c8.99,0,16.624-1.928,22.901-5.783c6.273-3.853,10.843-8.793,13.71-14.819l-23.124-7.117
	C513.833,136.326,512.004,138.178,509.534,139.607L509.534,139.607z"/>
</svg>
